<svg width="79" height="39" xmlns="http://www.w3.org/2000/svg" xmlns:xlink="http://www.w3.org/1999/xlink" xml:space="preserve" overflow="hidden"><defs><clipPath id="clip0"><rect x="0" y="0" width="79" height="39"/></clipPath><clipPath id="clip1"><path d="M38.6 23C38.6 25.4321 36.63 27.4 34.2 27.4 31.77 27.4 29.8 25.4321 29.8 23 29.8 20.568 31.77 18.6001 34.2 18.6001 36.63 18.6001 38.6 20.568 38.6 23Z"/></clipPath><clipPath id="clip2"><path d="M38.6 23C38.6 25.4321 36.63 27.4 34.2 27.4 31.77 27.4 29.8 25.4321 29.8 23 29.8 20.568 31.77 18.6001 34.2 18.6001 36.63 18.6001 38.6 20.568 38.6 23Z"/></clipPath><clipPath id="clip3"><path d="M38.6 23C38.6 25.4321 36.63 27.4 34.2 27.4 31.77 27.4 29.8 25.4321 29.8 23 29.8 20.568 31.77 18.6001 34.2 18.6001 36.63 18.6001 38.6 20.568 38.6 23Z"/></clipPath><clipPath id="clip4"><path d="M23.8 34.2001C23.8 36.6321 21.83 38.6001 19.4 38.6001 16.97 38.6001 15 36.6321 15 34.2001 15 31.7681 16.97 29.8 19.4 29.8 21.83 29.8 23.8 31.7681 23.8 34.2001Z"/></clipPath><clipPath id="clip5"><path d="M23.8 34.2001C23.8 36.6321 21.83 38.6001 19.4 38.6001 16.97 38.6001 15 36.6321 15 34.2001 15 31.7681 16.97 29.8 19.4 29.8 21.83 29.8 23.8 31.7681 23.8 34.2001Z"/></clipPath><clipPath id="clip6"><path d="M23.8 34.2001C23.8 36.6321 21.83 38.6001 19.4 38.6001 16.97 38.6001 15 36.6321 15 34.2001 15 31.7681 16.97 29.8 19.4 29.8 21.83 29.8 23.8 31.7681 23.8 34.2001Z"/></clipPath><clipPath id="clip7"><rect x="0" y="29" width="9" height="10"/></clipPath><clipPath id="clip8"><rect x="0" y="29" width="9" height="10"/></clipPath><clipPath id="clip9"><rect x="0" y="29" width="9" height="10"/></clipPath><clipPath id="clip10"><path d="M23.8 11.8C23.8 14.2321 21.83 16.2001 19.4 16.2001 16.97 16.2001 15 14.2321 15 11.8 15 9.36804 16.97 7.40002 19.4 7.40002 21.83 7.40002 23.8 9.36804 23.8 11.8Z"/></clipPath><clipPath id="clip11"><path d="M23.8 11.8C23.8 14.2321 21.83 16.2001 19.4 16.2001 16.97 16.2001 15 14.2321 15 11.8 15 9.36804 16.97 7.40002 19.4 7.40002 21.83 7.40002 23.8 9.36804 23.8 11.8Z"/></clipPath><clipPath id="clip12"><path d="M23.8 11.8C23.8 14.2321 21.83 16.2001 19.4 16.2001 16.97 16.2001 15 14.2321 15 11.8 15 9.36804 16.97 7.40002 19.4 7.40002 21.83 7.40002 23.8 9.36804 23.8 11.8Z"/></clipPath><clipPath id="clip13"><path d="M9 19.4C9 21.832 7.03004 23.8 4.6 23.8 2.16996 23.8 0.2 21.832 0.2 19.4 0.2 16.968 2.16996 15 4.6 15 7.03004 15 9 16.968 9 19.4Z"/></clipPath><clipPath id="clip14"><path d="M9 19.4C9 21.832 7.03004 23.8 4.6 23.8 2.16996 23.8 0.2 21.832 0.2 19.4 0.2 16.968 2.16996 15 4.6 15 7.03004 15 9 16.968 9 19.4Z"/></clipPath><clipPath id="clip15"><path d="M9 19.4C9 21.832 7.03004 23.8 4.6 23.8 2.16996 23.8 0.2 21.832 0.2 19.4 0.2 16.968 2.16996 15 4.6 15 7.03004 15 9 16.968 9 19.4Z"/></clipPath><clipPath id="clip16"><path d="M9 4.6001C9 7.0321 7.03004 9 4.6 9 2.16996 9 0.2 7.0321 0.2 4.6001 0.2 2.16797 2.16996 0.200073 4.6 0.200073 7.03004 0.200073 9 2.16797 9 4.6001Z"/></clipPath><clipPath id="clip17"><path d="M9 4.6001C9 7.0321 7.03004 9 4.6 9 2.16996 9 0.2 7.0321 0.2 4.6001 0.2 2.16797 2.16996 0.200073 4.6 0.200073 7.03004 0.200073 9 2.16797 9 4.6001Z"/></clipPath><clipPath id="clip18"><path d="M9 4.6001C9 7.0321 7.03004 9 4.6 9 2.16996 9 0.2 7.0321 0.2 4.6001 0.2 2.16797 2.16996 0.200073 4.6 0.200073 7.03004 0.200073 9 2.16797 9 4.6001Z"/></clipPath><clipPath id="clip19"><path d="M63.8 12.6001 59.4 3.80005 68.2 3.80005Z"/></clipPath><clipPath id="clip20"><path d="M63.8 12.6001 59.4 3.80005 68.2 3.80005Z"/></clipPath><clipPath id="clip21"><path d="M63.8 12.6001 59.4 3.80005 68.2 3.80005Z"/></clipPath></defs><g clip-path="url(#clip0)"><path d="M78.6 23 63.8 23Z" stroke="#000000" stroke-width="0.4" stroke-linecap="square" stroke-miterlimit="10" fill="none"/><path d="M78.6 18.6001C76.4 20.8 80.8 25.2001 78.6 27.4" stroke="#000000" stroke-width="0.4" stroke-linecap="square" stroke-miterlimit="10" fill="none"/><path d="M63.8 23 49 23Z" stroke="#000000" stroke-width="0.4" stroke-linecap="square" stroke-miterlimit="10" fill="none"/><path d="M63.8 23 63.8 8.20007Z" stroke="#000000" stroke-width="0.4" stroke-linecap="square" stroke-miterlimit="10" fill="none"/><g><path d="M59.4 18.6001 68.2 18.6001 68.2 27.4 59.4 27.4Z" fill="#FFFFFF"/></g><g><path d="M59.4 18.6001 68.2 18.6001 68.2 27.4 59.4 27.4Z" fill="#0000FA"/></g><g><path d="M59.4 18.6001 68.2 18.6001 68.2 27.4 59.4 27.4Z" stroke="#000000" stroke-width="0.4" stroke-linecap="square" stroke-miterlimit="10" fill="none"/></g><path d="M59.4 18.6001 68.2 18.6001 68.2 27.4 59.4 27.4Z" stroke="#000000" stroke-width="0.4" stroke-linecap="square" stroke-miterlimit="10" fill="none"/><path d="M49 23 34.2 23Z" stroke="#000000" stroke-width="0.4" stroke-linecap="square" stroke-miterlimit="10" fill="none"/><g><path d="M44.6 18.6001 53.4 18.6001 53.4 27.4 44.6 27.4Z" fill="#FFFFFF"/></g><g><path d="M44.6 18.6001 53.4 18.6001 53.4 27.4 44.6 27.4Z" fill="#0000FA"/></g><g><path d="M44.6 18.6001 53.4 18.6001 53.4 27.4 44.6 27.4Z" stroke="#000000" stroke-width="0.4" stroke-linecap="square" stroke-miterlimit="10" fill="none"/></g><path d="M44.6 18.6001 53.4 18.6001 53.4 27.4 44.6 27.4Z" stroke="#000000" stroke-width="0.4" stroke-linecap="square" stroke-miterlimit="10" fill="none"/><path d="M34.2 23 19.4 34.2001Z" stroke="#000000" stroke-width="0.4" stroke-linecap="square" stroke-miterlimit="10" fill="none"/><path d="M34.2 23 19.4 11.8Z" stroke="#000000" stroke-width="0.4" stroke-linecap="square" stroke-miterlimit="10" fill="none"/><g clip-path="url(#clip1)"><path d="M38.6 23C38.6 25.4302 36.6301 27.4 34.2 27.4 31.7699 27.4 29.8 25.4302 29.8 23 29.8 20.5699 31.7699 18.6001 34.2 18.6001 36.6301 18.6001 38.6 20.5699 38.6 23Z" fill="#FFFFFF"/></g><g clip-path="url(#clip2)"><path d="M29.8 18.6001 38.6 18.6001 38.6 27.4 29.8 27.4Z" fill="#00C832"/></g><g clip-path="url(#clip3)"><path d="M29.8 18.6001 38.6 18.6001 38.6 27.4 29.8 27.4Z" stroke="#000000" stroke-width="0.4" stroke-linecap="square" stroke-miterlimit="10" fill="none"/></g><path d="M38.6 23C38.6 25.4302 36.6301 27.4 34.2 27.4 31.7699 27.4 29.8 25.4302 29.8 23 29.8 20.5699 31.7699 18.6001 34.2 18.6001 36.6301 18.6001 38.6 20.5699 38.6 23Z" stroke="#000000" stroke-width="0.4" stroke-linecap="square" stroke-miterlimit="10" fill="none"/><path d="M19.4 34.2001 4.6 34.2001Z" stroke="#000000" stroke-width="0.4" stroke-linecap="square" stroke-miterlimit="10" fill="none"/><g clip-path="url(#clip4)"><path d="M23.8 34.2001C23.8 36.6301 21.8301 38.6001 19.4 38.6001 16.9699 38.6001 15 36.6301 15 34.2001 15 31.77 16.9699 29.8 19.4 29.8 21.8301 29.8 23.8 31.77 23.8 34.2001Z" fill="#FFFFFF"/></g><g clip-path="url(#clip5)"><path d="M15 29.8 23.8 29.8 23.8 38.6001 15 38.6001Z" fill="#00C832"/></g><g clip-path="url(#clip6)"><path d="M15 29.8 23.8 29.8 23.8 38.6001 15 38.6001Z" stroke="#000000" stroke-width="0.4" stroke-linecap="square" stroke-miterlimit="10" fill="none"/></g><path d="M23.8 34.2001C23.8 36.6301 21.8301 38.6001 19.4 38.6001 16.9699 38.6001 15 36.6301 15 34.2001 15 31.77 16.9699 29.8 19.4 29.8 21.8301 29.8 23.8 31.77 23.8 34.2001Z" stroke="#000000" stroke-width="0.4" stroke-linecap="square" stroke-miterlimit="10" fill="none"/><g clip-path="url(#clip7)"><path d="M0.2 29.8 9 29.8 9 38.6001 0.2 38.6001Z" fill="#FFFFFF"/></g><g clip-path="url(#clip8)"><path d="M0.2 29.8 9 29.8 9 38.6001 0.2 38.6001Z" fill="#0000FA"/></g><g clip-path="url(#clip9)"><path d="M0.2 29.8 9 29.8 9 38.6001 0.2 38.6001Z" stroke="#000000" stroke-width="0.4" stroke-linecap="square" stroke-miterlimit="10" fill="none"/></g><path d="M0.2 29.8 9 29.8 9 38.6001 0.2 38.6001Z" stroke="#000000" stroke-width="0.4" stroke-linecap="square" stroke-miterlimit="10" fill="none"/><path d="M19.4 11.8 4.6 19.4Z" stroke="#000000" stroke-width="0.4" stroke-linecap="square" stroke-miterlimit="10" fill="none"/><path d="M19.4 11.8 4.6 4.6001Z" stroke="#000000" stroke-width="0.4" stroke-linecap="square" stroke-miterlimit="10" fill="none"/><g clip-path="url(#clip10)"><path d="M23.8 11.8C23.8 14.2301 21.8301 16.2001 19.4 16.2001 16.9699 16.2001 15 14.2301 15 11.8 15 9.37 16.9699 7.40002 19.4 7.40002 21.8301 7.40002 23.8 9.37 23.8 11.8Z" fill="#FFFFFF"/></g><g clip-path="url(#clip11)"><path d="M15 7.40002 23.8 7.40002 23.8 16.2001 15 16.2001Z" fill="#00C832"/></g><g clip-path="url(#clip12)"><path d="M15 7.40002 23.8 7.40002 23.8 16.2001 15 16.2001Z" stroke="#000000" stroke-width="0.4" stroke-linecap="square" stroke-miterlimit="10" fill="none"/></g><path d="M23.8 11.8C23.8 14.2301 21.8301 16.2001 19.4 16.2001 16.9699 16.2001 15 14.2301 15 11.8 15 9.37 16.9699 7.40002 19.4 7.40002 21.8301 7.40002 23.8 9.37 23.8 11.8Z" stroke="#000000" stroke-width="0.4" stroke-linecap="square" stroke-miterlimit="10" fill="none"/><g clip-path="url(#clip13)"><path d="M9 19.4C9 21.8301 7.03005 23.8 4.6 23.8 2.16995 23.8 0.2 21.8301 0.2 19.4 0.2 16.97 2.16995 15 4.6 15 7.03005 15 9 16.97 9 19.4Z" fill="#FFFFFF"/></g><g clip-path="url(#clip14)"><path d="M0.2 15 9 15 9 23.8 0.2 23.8Z" fill="#00C832"/></g><g clip-path="url(#clip15)"><path d="M0.2 15 9 15 9 23.8 0.2 23.8Z" stroke="#000000" stroke-width="0.4" stroke-linecap="square" stroke-miterlimit="10" fill="none"/></g><path d="M9 19.4C9 21.8301 7.03005 23.8 4.6 23.8 2.16995 23.8 0.2 21.8301 0.2 19.4 0.2 16.97 2.16995 15 4.6 15 7.03005 15 9 16.97 9 19.4Z" stroke="#000000" stroke-width="0.4" stroke-linecap="square" stroke-miterlimit="10" fill="none"/><g clip-path="url(#clip16)"><path d="M9 4.6001C9 7.03015 7.03005 9 4.6 9 2.16995 9 0.2 7.03015 0.2 4.6001 0.2 2.16992 2.16995 0.200073 4.6 0.200073 7.03005 0.200073 9 2.16992 9 4.6001Z" fill="#FFFFFF"/></g><g clip-path="url(#clip17)"><path d="M0.2 0.200073 9 0.200073 9 9 0.2 9Z" fill="#00C832"/></g><g clip-path="url(#clip18)"><path d="M0.2 0.200073 9 0.200073 9 9 0.2 9Z" stroke="#000000" stroke-width="0.4" stroke-linecap="square" stroke-miterlimit="10" fill="none"/></g><path d="M9 4.6001C9 7.03015 7.03005 9 4.6 9 2.16995 9 0.2 7.03015 0.2 4.6001 0.2 2.16992 2.16995 0.200073 4.6 0.200073 7.03005 0.200073 9 2.16992 9 4.6001Z" stroke="#000000" stroke-width="0.4" stroke-linecap="square" stroke-miterlimit="10" fill="none"/><g clip-path="url(#clip19)"><path d="M59.4 3.80005 68.2 3.80005 63.8 12.6001Z" fill="#FFFFFF"/></g><g clip-path="url(#clip20)"><path d="M59.4 3.80005 68.2 3.80005 68.2 12.6001 59.4 12.6001Z" fill="#FA0000"/></g><g clip-path="url(#clip21)"><path d="M59.4 3.80005 68.2 3.80005 68.2 12.6001 59.4 12.6001Z" stroke="#000000" stroke-width="0.4" stroke-linecap="square" stroke-miterlimit="10" fill="none"/></g><path d="M59.4 3.80005 68.2 3.80005 63.8 12.6001Z" stroke="#000000" stroke-width="0.4" stroke-linecap="square" stroke-miterlimit="10" fill="none"/></g></svg>