<svg width="103" height="32" xmlns="http://www.w3.org/2000/svg" xmlns:xlink="http://www.w3.org/1999/xlink" xml:space="preserve" overflow="hidden"><defs><clipPath id="clip0"><rect x="0" y="0" width="103" height="32"/></clipPath><clipPath id="clip1"><path d="M62.6 19.48C62.6 21.91 60.63 23.88 58.2 23.88 55.77 23.88 53.8 21.91 53.8 19.48 53.8 17.05 55.77 15.08 58.2 15.08 60.63 15.08 62.6 17.05 62.6 19.48Z"/></clipPath><clipPath id="clip2"><path d="M62.6 19.48C62.6 21.91 60.63 23.88 58.2 23.88 55.77 23.88 53.8 21.91 53.8 19.48 53.8 17.05 55.77 15.08 58.2 15.08 60.63 15.08 62.6 17.05 62.6 19.48Z"/></clipPath><clipPath id="clip3"><path d="M62.6 19.48C62.6 21.91 60.63 23.88 58.2 23.88 55.77 23.88 53.8 21.91 53.8 19.48 53.8 17.05 55.77 15.08 58.2 15.08 60.63 15.08 62.6 17.05 62.6 19.48Z"/></clipPath><clipPath id="clip4"><path d="M47.8 27.08C47.8 29.51 45.83 31.48 43.4 31.48 40.97 31.48 39 29.51 39 27.08 39 24.65 40.97 22.68 43.4 22.68 45.83 22.68 47.8 24.65 47.8 27.08Z"/></clipPath><clipPath id="clip5"><path d="M47.8 27.08C47.8 29.51 45.83 31.48 43.4 31.48 40.97 31.48 39 29.51 39 27.08 39 24.65 40.97 22.68 43.4 22.68 45.83 22.68 47.8 24.65 47.8 27.08Z"/></clipPath><clipPath id="clip6"><path d="M47.8 27.08C47.8 29.51 45.83 31.48 43.4 31.48 40.97 31.48 39 29.51 39 27.08 39 24.65 40.97 22.68 43.4 22.68 45.83 22.68 47.8 24.65 47.8 27.08Z"/></clipPath><clipPath id="clip7"><path d="M47.8 12.28C47.8 14.71 45.83 16.68 43.4 16.68 40.97 16.68 39 14.71 39 12.28 39 9.85001 40.97 7.88 43.4 7.88 45.83 7.88 47.8 9.85001 47.8 12.28Z"/></clipPath><clipPath id="clip8"><path d="M47.8 12.28C47.8 14.71 45.83 16.68 43.4 16.68 40.97 16.68 39 14.71 39 12.28 39 9.85001 40.97 7.88 43.4 7.88 45.83 7.88 47.8 9.85001 47.8 12.28Z"/></clipPath><clipPath id="clip9"><path d="M47.8 12.28C47.8 14.71 45.83 16.68 43.4 16.68 40.97 16.68 39 14.71 39 12.28 39 9.85001 40.97 7.88 43.4 7.88 45.83 7.88 47.8 9.85001 47.8 12.28Z"/></clipPath><clipPath id="clip10"><path d="M87.8 9.07999 83.4 0.279999 92.2 0.279999Z"/></clipPath><clipPath id="clip11"><path d="M87.8 9.07999 83.4 0.279999 92.2 0.279999Z"/></clipPath><clipPath id="clip12"><path d="M87.8 9.07999 83.4 0.279999 92.2 0.279999Z"/></clipPath><clipPath id="clip13"><path d="M9 15.88C9 18.31 7.03004 20.28 4.6 20.28 2.16996 20.28 0.2 18.31 0.2 15.88 0.2 13.45 2.16996 11.48 4.6 11.48 7.03004 11.48 9 13.45 9 15.88Z"/></clipPath><clipPath id="clip14"><path d="M9 15.88C9 18.31 7.03004 20.28 4.6 20.28 2.16996 20.28 0.2 18.31 0.2 15.88 0.2 13.45 2.16996 11.48 4.6 11.48 7.03004 11.48 9 13.45 9 15.88Z"/></clipPath><clipPath id="clip15"><path d="M9 15.88C9 18.31 7.03004 20.28 4.6 20.28 2.16996 20.28 0.2 18.31 0.2 15.88 0.2 13.45 2.16996 11.48 4.6 11.48 7.03004 11.48 9 13.45 9 15.88Z"/></clipPath></defs><g clip-path="url(#clip0)"><path d="M102.6 19.48 87.8 19.48Z" stroke="#000000" stroke-width="0.4" stroke-linecap="square" stroke-miterlimit="10" fill="none"/><path d="M102.6 15.08C100.4 17.28 104.8 21.68 102.6 23.88" stroke="#000000" stroke-width="0.4" stroke-linecap="square" stroke-miterlimit="10" fill="none"/><path d="M87.8 19.48 73 19.48Z" stroke="#000000" stroke-width="0.4" stroke-linecap="square" stroke-miterlimit="10" fill="none"/><path d="M87.8 19.48 87.8 4.67999Z" stroke="#000000" stroke-width="0.4" stroke-linecap="square" stroke-miterlimit="10" fill="none"/><g><path d="M83.4 15.08 92.2 15.08 92.2 23.88 83.4 23.88Z" fill="#FFFFFF"/></g><g><path d="M83.4 15.08 92.2 15.08 92.2 23.88 83.4 23.88Z" fill="#0000FA"/></g><g><path d="M83.4 15.08 92.2 15.08 92.2 23.88 83.4 23.88Z" stroke="#000000" stroke-width="0.4" stroke-linecap="square" stroke-miterlimit="10" fill="none"/></g><path d="M83.4 15.08 92.2 15.08 92.2 23.88 83.4 23.88Z" stroke="#000000" stroke-width="0.4" stroke-linecap="square" stroke-miterlimit="10" fill="none"/><path d="M73 19.48 58.2 19.48Z" stroke="#000000" stroke-width="0.4" stroke-linecap="square" stroke-miterlimit="10" fill="none"/><g><path d="M68.6 15.08 77.4 15.08 77.4 23.88 68.6 23.88Z" fill="#FFFFFF"/></g><g><path d="M68.6 15.08 77.4 15.08 77.4 23.88 68.6 23.88Z" fill="#0000FA"/></g><g><path d="M68.6 15.08 77.4 15.08 77.4 23.88 68.6 23.88Z" stroke="#000000" stroke-width="0.4" stroke-linecap="square" stroke-miterlimit="10" fill="none"/></g><path d="M68.6 15.08 77.4 15.08 77.4 23.88 68.6 23.88Z" stroke="#000000" stroke-width="0.4" stroke-linecap="square" stroke-miterlimit="10" fill="none"/><path d="M58.2 19.48 43.4 27.08Z" stroke="#000000" stroke-width="0.4" stroke-linecap="square" stroke-miterlimit="10" fill="none"/><path d="M58.2 19.48 43.4 12.28Z" stroke="#000000" stroke-width="0.4" stroke-linecap="square" stroke-miterlimit="10" fill="none"/><g clip-path="url(#clip1)"><path d="M62.6 19.48C62.6 21.9101 60.6301 23.88 58.2 23.88 55.7699 23.88 53.8 21.9101 53.8 19.48 53.8 17.05 55.7699 15.08 58.2 15.08 60.6301 15.08 62.6 17.05 62.6 19.48Z" fill="#FFFFFF"/></g><g clip-path="url(#clip2)"><path d="M53.8 15.08 62.6 15.08 62.6 23.88 53.8 23.88Z" fill="#00C832"/></g><g clip-path="url(#clip3)"><path d="M53.8 15.08 62.6 15.08 62.6 23.88 53.8 23.88Z" stroke="#000000" stroke-width="0.4" stroke-linecap="square" stroke-miterlimit="10" fill="none"/></g><path d="M62.6 19.48C62.6 21.9101 60.6301 23.88 58.2 23.88 55.7699 23.88 53.8 21.9101 53.8 19.48 53.8 17.05 55.7699 15.08 58.2 15.08 60.6301 15.08 62.6 17.05 62.6 19.48Z" stroke="#000000" stroke-width="0.4" stroke-linecap="square" stroke-miterlimit="10" fill="none"/><path d="M43.4 27.08 28.6 27.08Z" stroke="#000000" stroke-width="0.4" stroke-linecap="square" stroke-miterlimit="10" fill="none"/><g clip-path="url(#clip4)"><path d="M47.8 27.08C47.8 29.51 45.8301 31.48 43.4 31.48 40.9699 31.48 39 29.51 39 27.08 39 24.6499 40.9699 22.68 43.4 22.68 45.8301 22.68 47.8 24.6499 47.8 27.08Z" fill="#FFFFFF"/></g><g clip-path="url(#clip5)"><path d="M39 22.68 47.8 22.68 47.8 31.48 39 31.48Z" fill="#00C832"/></g><g clip-path="url(#clip6)"><path d="M39 22.68 47.8 22.68 47.8 31.48 39 31.48Z" stroke="#000000" stroke-width="0.4" stroke-linecap="square" stroke-miterlimit="10" fill="none"/></g><path d="M47.8 27.08C47.8 29.51 45.8301 31.48 43.4 31.48 40.9699 31.48 39 29.51 39 27.08 39 24.6499 40.9699 22.68 43.4 22.68 45.8301 22.68 47.8 24.6499 47.8 27.08Z" stroke="#000000" stroke-width="0.4" stroke-linecap="square" stroke-miterlimit="10" fill="none"/><g><path d="M24.2 22.68 33 22.68 33 31.48 24.2 31.48Z" fill="#FFFFFF"/></g><g><path d="M24.2 22.68 33 22.68 33 31.48 24.2 31.48Z" fill="#0000FA"/></g><g><path d="M24.2 22.68 33 22.68 33 31.48 24.2 31.48Z" stroke="#000000" stroke-width="0.4" stroke-linecap="square" stroke-miterlimit="10" fill="none"/></g><path d="M24.2 22.68 33 22.68 33 31.48 24.2 31.48Z" stroke="#000000" stroke-width="0.4" stroke-linecap="square" stroke-miterlimit="10" fill="none"/><path d="M43.4 12.28 28.6 12.28Z" stroke="#000000" stroke-width="0.4" stroke-linecap="square" stroke-miterlimit="10" fill="none"/><g clip-path="url(#clip7)"><path d="M47.8 12.28C47.8 14.7101 45.8301 16.68 43.4 16.68 40.9699 16.68 39 14.7101 39 12.28 39 9.84995 40.9699 7.88 43.4 7.88 45.8301 7.88 47.8 9.84995 47.8 12.28Z" fill="#FFFFFF"/></g><g clip-path="url(#clip8)"><path d="M39 7.88 47.8 7.88 47.8 16.68 39 16.68Z" fill="#00C832"/></g><g clip-path="url(#clip9)"><path d="M39 7.88 47.8 7.88 47.8 16.68 39 16.68Z" stroke="#000000" stroke-width="0.4" stroke-linecap="square" stroke-miterlimit="10" fill="none"/></g><path d="M47.8 12.28C47.8 14.7101 45.8301 16.68 43.4 16.68 40.9699 16.68 39 14.7101 39 12.28 39 9.84995 40.9699 7.88 43.4 7.88 45.8301 7.88 47.8 9.84995 47.8 12.28Z" stroke="#000000" stroke-width="0.4" stroke-linecap="square" stroke-miterlimit="10" fill="none"/><g><path d="M24.2 7.88 33 7.88 33 16.68 24.2 16.68Z" fill="#FFFFFF"/></g><g><path d="M24.2 7.88 33 7.88 33 16.68 24.2 16.68Z" fill="#0000FA"/></g><g><path d="M24.2 7.88 33 7.88 33 16.68 24.2 16.68Z" stroke="#000000" stroke-width="0.4" stroke-linecap="square" stroke-miterlimit="10" fill="none"/></g><path d="M24.2 7.88 33 7.88 33 16.68 24.2 16.68Z" stroke="#000000" stroke-width="0.4" stroke-linecap="square" stroke-miterlimit="10" fill="none"/><g clip-path="url(#clip10)"><path d="M83.4 0.279999 92.2 0.279999 87.8 9.07999Z" fill="#FFFFFF"/></g><g clip-path="url(#clip11)"><path d="M83.4 0.279999 92.2 0.279999 92.2 9.07999 83.4 9.07999Z" fill="#FA0000"/></g><g clip-path="url(#clip12)"><path d="M83.4 0.279999 92.2 0.279999 92.2 9.07999 83.4 9.07999Z" stroke="#000000" stroke-width="0.4" stroke-linecap="square" stroke-miterlimit="10" fill="none"/></g><path d="M83.4 0.279999 92.2 0.279999 87.8 9.07999Z" stroke="#000000" stroke-width="0.4" stroke-linecap="square" stroke-miterlimit="10" fill="none"/><path d="M20.68 0.279999C18.92 1.84 20.68 14.32 18.92 15.88M20.68 31.48C18.92 29.92 20.68 17.44 18.92 15.88" stroke="#000000" stroke-width="0.4" stroke-linecap="square" stroke-miterlimit="10" fill="none"/><path d="M15 15.88 4.6 15.88Z" stroke="#000000" stroke-width="0.4" stroke-linecap="square" stroke-miterlimit="10" fill="none"/><g clip-path="url(#clip13)"><path d="M9 15.88C9 18.3101 7.03005 20.28 4.6 20.28 2.16995 20.28 0.2 18.3101 0.2 15.88 0.2 13.45 2.16995 11.48 4.6 11.48 7.03005 11.48 9 13.45 9 15.88Z" fill="#FFFFFF"/></g><g clip-path="url(#clip14)"><path d="M0.2 11.48 9 11.48 9 20.28 0.2 20.28Z" fill="#FFFF00"/></g><g clip-path="url(#clip15)"><path d="M0.2 11.48 9 11.48 9 20.28 0.2 20.28Z" stroke="#000000" stroke-width="0.4" stroke-linecap="square" stroke-miterlimit="10" fill="none"/></g><path d="M9 15.88C9 18.3101 7.03005 20.28 4.6 20.28 2.16995 20.28 0.2 18.3101 0.2 15.88 0.2 13.45 2.16995 11.48 4.6 11.48 7.03005 11.48 9 13.45 9 15.88Z" stroke="#000000" stroke-width="0.4" stroke-linecap="square" stroke-miterlimit="10" fill="none"/></g></svg>